<?xml version="1.0" encoding="UTF-8"?><svg id="a" xmlns="http://www.w3.org/2000/svg" viewBox="0 0 722.98 1751.94"><defs><style>.b{fill:#fff;}.c{fill:#fe8572;}.d{fill:#f5b02f;}.e{fill:#b52d2d;}.f{fill:#7c91a8;}.g{fill:#1e2d46;}.h{fill:#e6e6e6;}.i{fill:#4b576b;}.j{fill:#b04f2e;}.k{fill:#c8cbcc;}.l{fill:#b88423;}.m{fill:#1a1a1a;}</style></defs><g><g><path class="c" d="M634.08,405.31c8.28-9.52,48.34-78.38,51.88-90.37,3.89-13.17-8.27-11.78-15.33-2.91s-50.53,77.42-54.34,83.99,10.76,17.38,17.79,9.29Z"/><g><path class="c" d="M680.97,428.16c-15.99,31.01-43.87,53.19-69.18,49.93-25.32-3.26-12.45-33.53-4.71-60.4,7.75-26.87,21.12-41.82,46.43-38.56,25.32,3.26,40.66,23.43,27.45,49.03Z"/><g><path class="c" d="M667.86,385.97c.67-.86,1.35-1.72,2.02-2.58,2.53-3.23,5.12-6.57,6.19-10.23,1.06-3.66,.21-7.76-3.11-9.35-3.15-1.52-7.65-.36-10.98,1.91-3.33,2.27-5.77,5.44-8.12,8.54-3.67,4.84-7.34,9.69-11.02,14.53-11.13,13.23-18.09,22.05-15.6,33.53,.24,1.12,.63,2.29,1.7,2.81,1.43,.7,3.43-.06,5.03-.95,6.86-3.82,11.8-10.01,16.47-15.98,5.8-7.41,11.61-14.81,17.42-22.22Z"/><path class="c" d="M681.6,396.49c.67-.86,1.35-1.72,2.02-2.58,2.53-3.23,5.12-6.57,6.19-10.23,1.07-3.66,.21-7.76-3.11-9.35-3.15-1.52-7.65-.36-10.98,1.91-3.33,2.27-5.77,5.44-8.12,8.54-3.67,4.84-7.34,9.69-11.02,14.53-11.13,13.23-18.09,22.05-15.6,33.53,.24,1.12,.63,2.29,1.7,2.81,1.43,.7,3.43-.06,5.03-.95,6.86-3.82,11.8-10.01,16.47-15.98,5.8-7.41,11.61-14.81,17.42-22.22Z"/><path class="c" d="M692.53,407.37c.57-.73,1.14-1.45,1.71-2.18,2.14-2.73,4.34-5.57,5.24-8.67,.9-3.1,.18-6.57-2.63-7.92-2.67-1.28-6.47-.3-9.3,1.61-2.82,1.92-4.88,4.61-6.87,7.23-3.11,4.1-6.22,8.2-9.33,12.3-9.43,11.2-15.32,18.67-13.22,28.4,.21,.94,.53,1.94,1.44,2.38,1.21,.59,2.9-.05,4.26-.81,5.81-3.23,9.99-8.48,13.95-13.53,4.92-6.27,9.84-12.55,14.75-18.82Z"/></g><polygon class="c" points="684.62 417.37 696.6 402.09 682.13 425.78 684.62 417.37"/></g></g><g><path class="d" d="M479.41,348.6c-17.71-11.75-76.84-15.25-48.19,107.53,24.24,103.89,32.41,162.94,43.16,194.85,15.17,45.03,85.56,46.64,93.67,1.68s-55.11-281.81-88.64-304.06Z"/><path class="d" d="M507.03,670.51c-27.58-21.06-13.49-68.57,4.77-99.29,12.74-21.44,88.48-168.3,88.48-168.3l71.23,51.37s-60.73,128.11-70.35,147.03c-35.27,69.39-52.15,101.23-94.13,69.19Z"/></g><g><path class="k" d="M703.95,1720.03H82.4c-10.47,0-19.03-8.56-19.03-19.03h0c0-10.47,8.57-19.03,19.03-19.03H703.94c10.47,0,19.03,8.56,19.03,19.03h0c0,10.47-8.56,19.03-19.03,19.03Z"/><path class="k" d="M669.84,1751.94h-241.94c-4.9,0-8.9-4.01-8.9-8.9h0c0-4.9,4.01-8.9,8.9-8.9h241.94c4.9,0,8.9,4.01,8.9,8.9h0c0,4.9-4.01,8.9-8.9,8.9Z"/><path class="k" d="M250.84,1699.77H8.9c-4.9,0-8.9-4.01-8.9-8.9H0c0-4.9,4.01-8.9,8.9-8.9H250.84c4.9,0,8.9,4.01,8.9,8.9h0c0,4.9-4.01,8.9-8.9,8.9Z"/><rect class="k" x="459.75" y="1696.42" width="137.03" height="47.81"/></g><g><path class="g" d="M465.03,783.46c-9.88-47.76-60.12-145.89-60.12-145.89H229.51s-50.25,98.13-60.12,145.89,6.52,89.86,30.06,104.51,117.76,16.47,117.76,16.47c0,0,94.21-1.83,117.76-16.47,23.55-14.64,39.94-56.74,30.06-104.5Z"/><g><g><path class="c" d="M205.88,1339.97c4.31,92.92,6.55,228.1,8.25,244.57,2.17,21.06,52.48-6.67,52.48-6.67,0,0,14.91-116.99,23.26-236.42-28-.18-55.98-1.33-83.98-1.48Z"/><path class="h" d="M278.73,1561.05h-71.23l-3.1,28.76s-26.32,35.52-19.1,52.55c7.23,17.03,82.06,15.73,88.26,4.1,6.19-11.64,5.16-85.41,5.16-85.41Z"/><path class="f" d="M276.09,1617.14s-28.21-62.53-85.24-16.12l-13.81,33.66s-34.74,16.66-34.74,63.76h145.54v-86.32c0-13.94-6.99-32.97-9.06-26.85-2.96,8.77-2.69,31.88-2.69,31.88Z"/></g><path class="g" d="M240.24,1210.47c29.21,0,62.76-22.57,62.76-48.34l10.88-272.08c0-25.77-46.11-99.6-46.11-99.6-29.49,0-101.16-1.16-101.16,24.61l20.02,348.55c0,25.77,32.54,46.86,53.61,46.86Z"/><path class="g" d="M246.54,1093.61c-39.42,0-60.2,29.83-60.2,58.48l13.95,333.44c0,28.65,89.57,28.17,89.57-.47,0,0,7.28-135.71,8.62-188.11s6.22-154.49,6.22-154.49c0-28.65-18.74-48.85-58.16-48.85Z"/><g><path class="m" d="M240.22,1641.99c.4,0,.79-.16,1.09-.47,.57-.6,.55-1.55-.05-2.12-15.33-14.55-36.25-23.03-57.39-23.24h-.02c-.82,0-1.49,.66-1.5,1.48,0,.83,.66,1.51,1.48,1.52,20.39,.21,40.57,8.38,55.36,22.42,.29,.28,.66,.41,1.03,.41Z"/><path class="m" d="M180.49,1639.88c.33,0,.67-.11,.95-.34,15.94-13.11,36.04-21.41,56.58-23.38,.83-.08,1.43-.81,1.35-1.64-.08-.82-.82-1.42-1.64-1.35-21.13,2.03-41.8,10.57-58.2,24.05-.64,.53-.73,1.47-.21,2.11,.3,.36,.73,.55,1.16,.55Z"/><path class="m" d="M242.49,1607.47c.54,0,1.05-.29,1.32-.79,.39-.73,.11-1.64-.61-2.03-15.29-8.18-33.81-10.88-50.8-7.41-.81,.17-1.33,.96-1.17,1.77,.17,.81,.95,1.34,1.77,1.17,16.32-3.33,34.1-.73,48.78,7.12,.23,.12,.47,.18,.71,.18Z"/><path class="m" d="M195.2,1609.92c.33,0,.66-.11,.94-.33,12.61-10.09,32.33-17.12,50.23-17.92,.83-.04,1.47-.74,1.43-1.56-.04-.83-.74-1.5-1.57-1.43-18.5,.82-38.9,8.11-51.97,18.57-.65,.52-.75,1.46-.23,2.11,.3,.37,.73,.56,1.17,.56Z"/></g></g><g><g><path class="c" d="M427.96,1337.73c-4.3,92.92-6.55,228.1-8.25,244.57-2.17,21.06-52.48-6.67-52.48-6.67,0,0-14.91-116.99-23.26-236.42,28-.18,55.98-1.34,83.98-1.48Z"/><path class="h" d="M355.11,1558.81h71.23l3.1,28.76s26.32,35.52,19.1,52.55c-7.23,17.03-82.06,15.73-88.26,4.1-6.19-11.64-5.16-85.41-5.16-85.41Z"/><path class="f" d="M357.74,1614.9s28.21-62.53,85.24-16.12l13.81,33.66s34.74,16.66,34.74,63.76h-145.54v-86.32c0-13.94,6.99-32.97,9.06-26.85,2.96,8.77,2.7,31.88,2.7,31.88Z"/><g><path class="m" d="M390.87,1639.44c-.4,0-.79-.16-1.09-.47-.57-.6-.54-1.55,.05-2.12,15.33-14.55,36.25-23.03,57.39-23.24h.02c.82,0,1.49,.66,1.5,1.48,0,.83-.66,1.51-1.48,1.52-20.39,.21-40.57,8.38-55.35,22.42-.29,.28-.66,.41-1.03,.41Z"/><path class="m" d="M448.25,1634.83c-.34,0-.67-.11-.95-.34-15.94-13.11-36.03-21.41-56.58-23.38-.83-.08-1.43-.81-1.35-1.64,.08-.82,.82-1.42,1.64-1.35,21.13,2.03,41.8,10.57,58.2,24.05,.64,.53,.73,1.47,.21,2.11-.3,.36-.73,.55-1.16,.55Z"/><path class="m" d="M388.59,1604.92c-.54,0-1.05-.29-1.32-.79-.39-.73-.11-1.64,.61-2.03,15.29-8.18,33.81-10.88,50.8-7.41,.81,.17,1.34,.96,1.17,1.77s-.95,1.34-1.77,1.17c-16.32-3.33-34.1-.73-48.78,7.12-.23,.12-.47,.18-.71,.18Z"/><path class="m" d="M435.88,1607.38c-.33,0-.66-.11-.94-.33-12.61-10.09-32.33-17.12-50.23-17.92-.83-.04-1.47-.74-1.43-1.56s.74-1.5,1.57-1.43c18.5,.82,38.9,8.11,51.97,18.57,.65,.52,.75,1.46,.23,2.11-.3,.37-.73,.56-1.17,.56Z"/></g></g><path class="g" d="M393.6,1208.23c-29.21,0-62.76-22.57-62.76-48.34l-10.88-272.08c0-25.77,46.11-99.6,46.11-99.6,29.49,0,101.16-1.16,101.16,24.61l-20.02,348.55c0,25.77-32.54,46.86-53.61,46.86Z"/><path class="g" d="M387.3,1091.37c39.42,0,60.2,29.83,60.2,58.48l-13.95,333.44c0,28.65-89.57,28.17-89.57-.47,0,0-7.28-135.71-8.62-188.11s-6.22-154.49-6.22-154.49c0-28.65,18.74-48.85,58.16-48.85Z"/></g><g><path class="i" d="M350.79,1189.49c15.45,13.11,37.8,16.82,56.91,10.36,5.37-1.81,10.45-4.41,15-7.78,1.53-1.14,.04-3.74-1.51-2.59-15.5,11.46-36.77,13.45-54.5,6.23-4.98-2.03-9.67-4.86-13.77-8.34-1.46-1.24-3.59,.87-2.12,2.12h0Z"/><path class="i" d="M220.71,1197.98c14.39,7.96,31.7,10.09,47.65,6.15,4.51-1.11,8.87-2.74,13.03-4.8,1.73-.86,.21-3.44-1.51-2.59-13.96,6.91-30.45,8.14-45.36,3.77-4.28-1.25-8.39-2.97-12.29-5.13-1.69-.93-3.21,1.66-1.52,2.59h0Z"/><path class="i" d="M282.15,1212.67l-20.1,1.83c-1.91,.17-1.92,3.18,0,3l20.1-1.83c1.91-.17,1.93-3.18,0-3h0Z"/><path class="i" d="M336.89,898.44c11.82-5.28,23.63-10.57,35.45-15.85,1.76-.79,.23-3.37-1.51-2.59-11.82,5.28-23.63,10.57-35.45,15.85-1.76,.79-.23,3.37,1.51,2.59h0Z"/><path class="i" d="M339.38,907.97c8.77,.51,17.55,1.01,26.32,1.51,1.93,.11,1.92-2.89,0-3-8.77-.51-17.55-1.01-26.33-1.51-1.93-.11-1.92,2.89,0,3h0Z"/><path class="i" d="M315.65,897.93c-7.23-9.29-14.45-18.58-21.68-27.87-1.18-1.52-3.29,.61-2.12,2.12,7.23,9.29,14.45,18.58,21.68,27.87,1.18,1.52,3.29-.61,2.12-2.12h0Z"/><path class="i" d="M317.64,801.43c.05,10.41,.11,20.83,.16,31.24,.03,5.12,.05,10.25,.08,15.37,.02,4.61-.52,9.75,.95,14.2,1.4,4.25,5.23,7.7,9.91,6.92,1.9-.32,1.09-3.21-.8-2.89-3.91,.65-6.18-3.72-6.72-6.88-.36-2.1-.3-4.26-.31-6.39-.01-2.31-.02-4.63-.04-6.94-.05-9.51-.1-19.01-.15-28.52-.03-5.37-.05-10.74-.08-16.12,0-1.93-3.01-1.93-3,0h0Z"/><path class="i" d="M328.57,809.18v35.61c0,1.93,3,1.93,3,0v-35.61c0-1.93-3-1.93-3,0h0Z"/></g></g><path class="d" d="M467.84,761.86c-11.57-59.22,13.15-407.7,8.66-412.84-9.5-10.88-89.46-37.83-106.5-37.83h-108.02c-17.04,0-97,26.95-106.5,37.83-4.49,5.13,20.24,353.39,8.73,412.48-7.12,36.51,310.75,36.75,303.64,.36Z"/><path class="d" d="M139.8,352.03c18.44-11.42,86.83-12.91,50.17,104.54-30.42,97.44-31.42,159.34-44.93,189.42-13.88,30.9-85.74,50.18-94.19,6.47-8.45-43.71,54.04-278.8,88.95-300.43Z"/><g><path class="c" d="M287.7,360.8c-26.16-33.18-38.62-45.26-38.62-45.26,0,0,31.14-7.35,64.79-7.35s64.79,7.35,64.79,7.35c0,0-12.46,12.08-38.62,45.26-10.49,13.31-41.86,13.31-52.35,0Z"/><g><path class="c" d="M358.46,316.28l-11.59-95.7h-66l-11.59,95.7c-1.15,9.53,6.29,17.92,15.88,17.92h57.41c9.6,0,17.04-8.39,15.88-17.92Z"/><path class="m" d="M280.88,220.57l-8.84,72.98c27.63,13.58,58.2,5.03,81.69-16.33l-6.86-56.65h-66Z"/></g></g><g><path class="c" d="M410.46,96.07c-.66-43.09-60.63-76.16-94.62-76.19h0l-12.35,.19h0c-33.97,1.08-92.9,35.96-92.24,79.06,0,0,11.3,88.02,17.29,122.54s65.56,73.19,85.34,73.19,78.13-41.08,83.06-75.77c4.93-34.68,13.53-123.01,13.53-123.01Z"/><g><path class="c" d="M228.84,219.4c-7.66-4.72-15.38-9.48-21.85-15.35-6.46-5.86-11.65-12.97-13.15-20.66-1.5-7.69-1.79-17.19,8.13-20.64,8.33-2.9,25.79,15.28,25.79,15.28l1.07,41.36Z"/><path class="c" d="M392.24,216.9c7.51-4.95,15.09-9.95,21.36-16.01,6.28-6.05,11.25-13.32,12.51-21.05s1.27-17.24-8.76-20.38c-8.41-2.64-25.31,16.06-25.31,16.06l.19,41.38Z"/></g></g><path class="j" d="M314.26,209.43c.58-.25,1.97-.92,2.1-1.71s-3.05-.96-4.61-1.37c-1.56-.41-3.15-1.36-3.37-3.01-.27-2.05,1.69-4,1.99-6.11,.02-.14,.03-.29,.04-.43-.88-1.75-2.77-1.22-3.84-.09-.71,.75-1.11,1.73-1.44,2.69-.71,2.1-1.09,4.33-.68,6.39,.41,2.05,1.7,3.9,3.64,4.53,1.94,.63,4.11,0,6.18-.89Z"/><g><path class="m" d="M346.03,162.35c5.55-2.84,12.3-.55,15.79,5.28,.49,.82,1.38,1.22,2.16,.67,.69-.48,1.06-1.74,.57-2.57-2.1-3.51-5.06-6.16-8.53-7.48-3.82-1.45-7.93-1.02-11.59,.85-.78,.4-.96,1.77-.57,2.57,.47,.96,1.38,1.08,2.16,.67h0Z"/><path class="m" d="M280.22,162.51c-5.51-2.92-12.29-.72-15.86,5.06-.51,.82-1.4,1.2-2.17,.64-.68-.49-1.04-1.75-.53-2.57,2.15-3.48,5.14-6.09,8.64-7.35,3.84-1.39,7.95-.91,11.57,1.01,.78,.41,.93,1.78,.53,2.57-.49,.95-1.39,1.05-2.17,.64h0Z"/><path class="m" d="M362.21,180.19c-.21,6.34-4.83,11.09-9.95,10.91-5.12-.18-8.8-5.23-8.59-11.57,.21-6.34,4.52-11.34,9.64-11.16,5.12,.18,9.1,5.47,8.9,11.81Z"/><path class="m" d="M264.42,179.07c-.21,6.34,3.29,11.85,8.4,12.03,5.12,.18,9.93-5.03,10.14-11.37s-3.78-11.63-8.9-11.81c-5.12-.18-9.44,4.81-9.64,11.16Z"/></g><path class="g" d="M425.02,110.12c4.41-.44,8.29-4.74,7.62-9.3-.84-5.7-3.21-10.98-6.77-15.28,2.39-.75,4.5-2.5,5.48-4.74,1.95-4.44-.28-9.07-4.37-11.2-4.52-2.36-9.15-4.41-13.92-6.19-.11-.16-.22-.32-.34-.47,1.05-.86,1.9-1.91,2.4-3.05,2.03-4.64-.42-8.83-4.37-11.2-5.08-3.05-10.41-5.63-15.91-7.78,4.14-3.83,4.79-11.38-1.97-13.86-7.69-2.83-15.3-3.16-22.66-1.21-3.48-8.42-9.04-15.84-16.46-21.57-5.57-4.3-11.97-.32-13.49,4.85-3.57-3.3-7.75-5.94-12.4-7.68-4.3-1.61-9.29,0-11.2,4.37-.26,.58-.43,1.2-.54,1.82-4.47-3.72-9.83-6.31-15.97-7.46-4.97-.94-8.2,2.14-9.18,5.91-8.55-2.63-17.39-2.55-26.2-.08-3.06,.86-4.99,3.85-5.39,6.95-4.66,.38-9.27,1.26-13.88,2.63-5.04,1.49-6.26,5.93-5.01,9.8-8.33,1.64-15.91,5.36-19.47,13.17-1.86,4.09-.33,7.64,2.43,9.73-8.9,3.79-15.64,12.93-16,22.64-.05,1.45,.15,2.86,.6,4.16-4.01,2.78-7.17,6.71-8.67,11.48-1.33,4.23-.23,9.42,4.37,11.2,.07,.03,.14,.04,.21,.07-3.31,3.67-5.53,8.3-5.95,13.34-.39,4.57,2.3,8.97,7.07,9.73,.97,.15,1.98,.1,2.97-.11,.04,.28,.09,.58,.14,.86-3.78,5.59-6.09,12.15-6.35,18.96-.18,4.58,2.15,8.95,7.07,9.73,1.19,.19,2.49,.05,3.73-.33-2.08,6.38-2.58,13.26-1.35,19.89,.31,1.66,1,3.2,1.99,4.45-.54,.59-1.08,1.17-1.65,1.74-3.23,3.27-1.97,9.3,1.34,11.95,3.9,3.11,8.71,1.94,11.95-1.34,8.71-8.83,14.33-19.82,17.2-31.83,.12-.51,.18-.99,.22-1.46,19.04-2.07,35.01-6.5,50.95-16.5,1.8,3.35,5.54,5.61,10.14,3.92,3.93-1.45,7.74-3.2,11.42-5.19,0,.02,.01,.04,.02,.06,1.7,4.51,6.55,6.35,10.95,4.97,6.67-2.09,12.81-5.98,17.58-11.11,1.67,4.77,7.58,8.48,13.19,4.91,5.05-3.21,10.22-6.82,14.73-11.01-.22,2.35-.42,4.71-.57,7.07-.28,4.58,2.22,8.96,7.07,9.73,1.78,.28,3.74-.12,5.44-1.02-.13,.77-.17,1.6-.08,2.5,1.39,13.25,5,28.67,15.67,37.59,6.34,5.3,13.96-1,13.66-7.42,2.6,1.13,5.57,1.06,8.17-.83,3.43-2.49,4.95-8.42,1.88-11.87-3.69-4.14-2.9-10.64-3.14-16.36,2.64-1.1,4.51-3.6,5.32-6.58,2.48-9.13,.97-18.36-3.28-26.57,1.1,.4,2.31,.58,3.58,.45Z"/><g><path class="d" d="M57.65,608.03c-12.25,46.07-6,55.17,3.43,78.22,9.43,23.05,99.59,170.83,99.59,170.83l68.82-57.68s-71.92-122.09-76.07-142.79c-1.08-5.41-2.84-19.71-5.4-37.39-9.62-66.44-71.6-81.78-90.38-11.18Z"/><path class="c" d="M220.9,806.6l18.43,22.9s-26.01,23.71-61.17,32.39l-7.6-13.1s4.75-27.06,50.34-42.19Z"/></g><g><path class="l" d="M468.01,583.13c.73-20.77,1.46-41.54,2.19-62.31,.73-20.69,1.45-41.37,2.18-62.06,.41-11.71,.82-23.43,1.23-35.14,.07-1.93-2.93-1.93-3,0-.73,20.77-1.46,41.54-2.19,62.31-.73,20.69-1.45,41.37-2.18,62.06-.41,11.71-.82,23.43-1.23,35.14-.07,1.93,2.93,1.93,3,0h0Z"/><path class="l" d="M167.44,614.14c-.78-24.43-1.55-48.86-2.33-73.29-.77-24.35-1.55-48.69-2.32-73.04-.44-13.71-.87-27.42-1.31-41.13-.06-1.93-3.06-1.93-3,0,.78,24.43,1.55,48.86,2.33,73.29,.77,24.35,1.55,48.69,2.32,73.04,.44,13.71,.87,27.42,1.31,41.13,.06,1.93,3.06,1.93,3,0h0Z"/><path class="l" d="M538.01,555.37c3.04-6.62,6.09-13.24,9.13-19.86,.34-.74,.26-1.59-.49-2.07-.62-.39-1.73-.25-2.07,.49-3.04,6.62-6.09,13.24-9.13,19.86-.34,.74-.26,1.59,.49,2.07,.62,.39,1.73,.25,2.07-.49h0Z"/><path class="l" d="M148.15,633.79c-6.97-.77-13.94-1.53-20.91-2.29-.81-.09-1.49,.75-1.5,1.5,0,.88,.7,1.41,1.5,1.5,6.97,.77,13.94,1.53,20.91,2.29,.81,.09,1.49-.75,1.5-1.5,0-.88-.7-1.41-1.5-1.5h0Z"/></g><path class="e" d="M312.6,250.66c-11.76,0-23.35-4.64-31.85-12.78-.83-.79-.85-2.1-.06-2.93s2.1-.86,2.93-.06c7.74,7.4,18.28,11.63,28.98,11.63,.13,0,.26,0,.39,0,10.84-.1,21.46-4.55,29.15-12.19,.81-.81,2.12-.8,2.93,0,.81,.81,.8,2.12,0,2.93-8.44,8.4-20.12,13.29-32.03,13.4h-.43Z"/></g><g><circle class="b" cx="429.99" cy="231.09" r="11"/><path class="b" d="M429.99,220.59c5.79,0,10.5,4.71,10.5,10.5s-4.71,10.5-10.5,10.5-10.5-4.71-10.5-10.5,4.71-10.5,10.5-10.5m0-1c-6.35,0-11.5,5.15-11.5,11.5s5.15,11.5,11.5,11.5,11.5-5.15,11.5-11.5-5.15-11.5-11.5-11.5h0Z"/></g><circle class="b" cx="496.99" cy="188.09" r="19.5"/><circle class="b" cx="556.49" cy="113.59" r="30"/></svg>